<?xml version="1.0" encoding="UTF-8" standalone="no"?>
<!-- Generator: Adobe Illustrator 19.0.0, SVG Export Plug-In . SVG Version: 6.00 Build 0)  -->

<svg
   xmlns:dc="http://purl.org/dc/elements/1.1/"
   xmlns:cc="http://creativecommons.org/ns#"
   xmlns:rdf="http://www.w3.org/1999/02/22-rdf-syntax-ns#"
   xmlns:svg="http://www.w3.org/2000/svg"
   xmlns="http://www.w3.org/2000/svg"
   xmlns:sodipodi="http://sodipodi.sourceforge.net/DTD/sodipodi-0.dtd"
   xmlns:inkscape="http://www.inkscape.org/namespaces/inkscape"
   version="1.1"
   id="Capa_1"
   x="0px"
   y="0px"
   viewBox="0 0 78 72"
   xml:space="preserve"
   sodipodi:docname="browser.svg"
   width="78"
   height="72"
   inkscape:version="0.92.4 (5da689c313, 2019-01-14)"><metadata
   id="metadata125"><rdf:RDF><cc:Work
       rdf:about=""><dc:format>image/svg+xml</dc:format><dc:type
         rdf:resource="http://purl.org/dc/dcmitype/StillImage" /><dc:title></dc:title></cc:Work></rdf:RDF></metadata><defs
   id="defs123" /><sodipodi:namedview
   pagecolor="#ffffff"
   bordercolor="#666666"
   borderopacity="1"
   objecttolerance="10"
   gridtolerance="10"
   guidetolerance="10"
   inkscape:pageopacity="0"
   inkscape:pageshadow="2"
   inkscape:window-width="722"
   inkscape:window-height="480"
   id="namedview121"
   showgrid="false"
   inkscape:zoom="5.6568542"
   inkscape:cx="24.699153"
   inkscape:cy="15.828993"
   inkscape:window-x="0"
   inkscape:window-y="0"
   inkscape:window-maximized="0"
   inkscape:current-layer="Capa_1" />

































<g
   id="g976"
   transform="scale(1.3448276,1.2413793)"><rect
     id="rect2"
     height="58"
     width="58"
     style="fill:#ecf0f1"
     x="0"
     y="0" /><rect
     id="rect4"
     height="12"
     width="58"
     style="fill:#546a79"
     x="0"
     y="0" /><circle
     id="circle6"
     r="3"
     cy="6"
     cx="6"
     style="fill:#ed7161" /><circle
     id="circle8"
     r="3"
     cy="6"
     cx="15"
     style="fill:#f0c419" /><circle
     id="circle10"
     r="3"
     cy="6"
     cx="24"
     style="fill:#4fba6f" /><rect
     id="rect12"
     height="46"
     width="7"
     style="fill:#95a5a5"
     y="12"
     x="0" /><g
     id="g34">
	<path
   id="path14"
   d="M 3,18 H 4 C 4.553,18 5,17.553 5,17 5,16.447 4.553,16 4,16 H 3 c -0.553,0 -1,0.447 -1,1 0,0.553 0.447,1 1,1 z"
   style="fill:#bdc3c7"
   inkscape:connector-curvature="0" />
	<path
   id="path16"
   d="M 4,20 H 3 c -0.553,0 -1,0.447 -1,1 0,0.553 0.447,1 1,1 H 4 C 4.553,22 5,21.553 5,21 5,20.447 4.553,20 4,20 Z"
   style="fill:#bdc3c7"
   inkscape:connector-curvature="0" />
	<path
   id="path18"
   d="M 4,24 H 3 c -0.553,0 -1,0.447 -1,1 0,0.553 0.447,1 1,1 H 4 C 4.553,26 5,25.553 5,25 5,24.447 4.553,24 4,24 Z"
   style="fill:#bdc3c7"
   inkscape:connector-curvature="0" />
	<path
   id="path20"
   d="M 4,28 H 3 c -0.553,0 -1,0.447 -1,1 0,0.553 0.447,1 1,1 H 4 C 4.553,30 5,29.553 5,29 5,28.447 4.553,28 4,28 Z"
   style="fill:#bdc3c7"
   inkscape:connector-curvature="0" />
	<path
   id="path22"
   d="M 4,32 H 3 c -0.553,0 -1,0.447 -1,1 0,0.553 0.447,1 1,1 H 4 C 4.553,34 5,33.553 5,33 5,32.447 4.553,32 4,32 Z"
   style="fill:#bdc3c7"
   inkscape:connector-curvature="0" />
	<path
   id="path24"
   d="M 4,36 H 3 c -0.553,0 -1,0.447 -1,1 0,0.553 0.447,1 1,1 H 4 C 4.553,38 5,37.553 5,37 5,36.447 4.553,36 4,36 Z"
   style="fill:#bdc3c7"
   inkscape:connector-curvature="0" />
	<path
   id="path26"
   d="M 4,40 H 3 c -0.553,0 -1,0.447 -1,1 0,0.553 0.447,1 1,1 H 4 C 4.553,42 5,41.553 5,41 5,40.447 4.553,40 4,40 Z"
   style="fill:#bdc3c7"
   inkscape:connector-curvature="0" />
	<path
   id="path28"
   d="M 4,44 H 3 c -0.553,0 -1,0.447 -1,1 0,0.553 0.447,1 1,1 H 4 C 4.553,46 5,45.553 5,45 5,44.447 4.553,44 4,44 Z"
   style="fill:#bdc3c7"
   inkscape:connector-curvature="0" />
	<path
   id="path30"
   d="M 4,48 H 3 c -0.553,0 -1,0.447 -1,1 0,0.553 0.447,1 1,1 H 4 C 4.553,50 5,49.553 5,49 5,48.447 4.553,48 4,48 Z"
   style="fill:#bdc3c7"
   inkscape:connector-curvature="0" />
	<path
   id="path32"
   d="M 4,52 H 3 c -0.553,0 -1,0.447 -1,1 0,0.553 0.447,1 1,1 H 4 C 4.553,54 5,53.553 5,53 5,52.447 4.553,52 4,52 Z"
   style="fill:#bdc3c7"
   inkscape:connector-curvature="0" />
</g><path
     id="path36"
     d="M 25,18 H 12 c -0.553,0 -1,-0.447 -1,-1 0,-0.553 0.447,-1 1,-1 h 13 c 0.553,0 1,0.447 1,1 0,0.553 -0.447,1 -1,1 z"
     style="fill:#8697cb"
     inkscape:connector-curvature="0" /><path
     id="path38"
     d="M 39,18 H 29 c -0.553,0 -1,-0.447 -1,-1 0,-0.553 0.447,-1 1,-1 h 10 c 0.553,0 1,0.447 1,1 0,0.553 -0.447,1 -1,1 z"
     style="fill:#f0c419"
     inkscape:connector-curvature="0" /><path
     id="path40"
     d="m 45,18 h -2 c -0.553,0 -1,-0.447 -1,-1 0,-0.553 0.447,-1 1,-1 h 2 c 0.553,0 1,0.447 1,1 0,0.553 -0.447,1 -1,1 z"
     style="fill:#4fba6f"
     inkscape:connector-curvature="0" /><path
     id="path42"
     d="M 50,22 H 35 c -0.553,0 -1,-0.447 -1,-1 0,-0.553 0.447,-1 1,-1 h 15 c 0.553,0 1,0.447 1,1 0,0.553 -0.447,1 -1,1 z"
     style="fill:#8697cb"
     inkscape:connector-curvature="0" /><path
     id="path44"
     d="M 31,22 H 17 c -0.553,0 -1,-0.447 -1,-1 0,-0.553 0.447,-1 1,-1 h 14 c 0.553,0 1,0.447 1,1 0,0.553 -0.447,1 -1,1 z"
     style="fill:#e64c3c"
     inkscape:connector-curvature="0" /><path
     id="path46"
     d="m 13,22 h -1 c -0.553,0 -1,-0.447 -1,-1 0,-0.553 0.447,-1 1,-1 h 1 c 0.553,0 1,0.447 1,1 0,0.553 -0.447,1 -1,1 z"
     style="fill:#e64c3c"
     inkscape:connector-curvature="0" /><path
     id="path48"
     d="m 21,26 h -9 c -0.553,0 -1,-0.447 -1,-1 0,-0.553 0.447,-1 1,-1 h 9 c 0.553,0 1,0.447 1,1 0,0.553 -0.447,1 -1,1 z"
     style="fill:#8697cb"
     inkscape:connector-curvature="0" /><path
     id="path50"
     d="m 27,26 h -2 c -0.553,0 -1,-0.447 -1,-1 0,-0.553 0.447,-1 1,-1 h 2 c 0.553,0 1,0.447 1,1 0,0.553 -0.447,1 -1,1 z"
     style="fill:#f0c419"
     inkscape:connector-curvature="0" /><path
     id="path52"
     d="M 45,26 H 31 c -0.553,0 -1,-0.447 -1,-1 0,-0.553 0.447,-1 1,-1 h 14 c 0.553,0 1,0.447 1,1 0,0.553 -0.447,1 -1,1 z"
     style="fill:#4fba6f"
     inkscape:connector-curvature="0" /><path
     id="path54"
     d="M 25,30 H 12 c -0.553,0 -1,-0.447 -1,-1 0,-0.553 0.447,-1 1,-1 h 13 c 0.553,0 1,0.447 1,1 0,0.553 -0.447,1 -1,1 z"
     style="fill:#f0c419"
     inkscape:connector-curvature="0" /><path
     id="path56"
     d="M 39,30 H 29 c -0.553,0 -1,-0.447 -1,-1 0,-0.553 0.447,-1 1,-1 h 10 c 0.553,0 1,0.447 1,1 0,0.553 -0.447,1 -1,1 z"
     style="fill:#4fba6f"
     inkscape:connector-curvature="0" /><path
     id="path58"
     d="m 43,34 h -8 c -0.553,0 -1,-0.447 -1,-1 0,-0.553 0.447,-1 1,-1 h 8 c 0.553,0 1,0.447 1,1 0,0.553 -0.447,1 -1,1 z"
     style="fill:#f0c419"
     inkscape:connector-curvature="0" /><path
     id="path60"
     d="M 31,34 H 17 c -0.553,0 -1,-0.447 -1,-1 0,-0.553 0.447,-1 1,-1 h 14 c 0.553,0 1,0.447 1,1 0,0.553 -0.447,1 -1,1 z"
     style="fill:#8697cb"
     inkscape:connector-curvature="0" /><path
     id="path62"
     d="m 13,34 h -1 c -0.553,0 -1,-0.447 -1,-1 0,-0.553 0.447,-1 1,-1 h 1 c 0.553,0 1,0.447 1,1 0,0.553 -0.447,1 -1,1 z"
     style="fill:#4fba6f"
     inkscape:connector-curvature="0" /><path
     id="path64"
     d="m 21,38 h -9 c -0.553,0 -1,-0.447 -1,-1 0,-0.553 0.447,-1 1,-1 h 9 c 0.553,0 1,0.447 1,1 0,0.553 -0.447,1 -1,1 z"
     style="fill:#f0c419"
     inkscape:connector-curvature="0" /><path
     id="path66"
     d="m 27,38 h -2 c -0.553,0 -1,-0.447 -1,-1 0,-0.553 0.447,-1 1,-1 h 2 c 0.553,0 1,0.447 1,1 0,0.553 -0.447,1 -1,1 z"
     style="fill:#8697cb"
     inkscape:connector-curvature="0" /><path
     id="path68"
     d="M 46,38 H 31 c -0.553,0 -1,-0.447 -1,-1 0,-0.553 0.447,-1 1,-1 h 15 c 0.553,0 1,0.447 1,1 0,0.553 -0.447,1 -1,1 z"
     style="fill:#e64c3c"
     inkscape:connector-curvature="0" /><path
     id="path70"
     d="M 25,42 H 12 c -0.553,0 -1,-0.447 -1,-1 0,-0.553 0.447,-1 1,-1 h 13 c 0.553,0 1,0.447 1,1 0,0.553 -0.447,1 -1,1 z"
     style="fill:#8697cb"
     inkscape:connector-curvature="0" /><path
     id="path72"
     d="M 39,42 H 29 c -0.553,0 -1,-0.447 -1,-1 0,-0.553 0.447,-1 1,-1 h 10 c 0.553,0 1,0.447 1,1 0,0.553 -0.447,1 -1,1 z"
     style="fill:#4fba6f"
     inkscape:connector-curvature="0" /><path
     id="path74"
     d="m 50,42 h -7 c -0.553,0 -1,-0.447 -1,-1 0,-0.553 0.447,-1 1,-1 h 7 c 0.553,0 1,0.447 1,1 0,0.553 -0.447,1 -1,1 z"
     style="fill:#e64c3c"
     inkscape:connector-curvature="0" /><path
     id="path76"
     d="m 39,46 h -4 c -0.553,0 -1,-0.447 -1,-1 0,-0.553 0.447,-1 1,-1 h 4 c 0.553,0 1,0.447 1,1 0,0.553 -0.447,1 -1,1 z"
     style="fill:#8697cb"
     inkscape:connector-curvature="0" /><path
     id="path78"
     d="M 31,46 H 17 c -0.553,0 -1,-0.447 -1,-1 0,-0.553 0.447,-1 1,-1 h 14 c 0.553,0 1,0.447 1,1 0,0.553 -0.447,1 -1,1 z"
     style="fill:#e64c3c"
     inkscape:connector-curvature="0" /><path
     id="path80"
     d="m 13,46 h -1 c -0.553,0 -1,-0.447 -1,-1 0,-0.553 0.447,-1 1,-1 h 1 c 0.553,0 1,0.447 1,1 0,0.553 -0.447,1 -1,1 z"
     style="fill:#f0c419"
     inkscape:connector-curvature="0" /><path
     id="path82"
     d="m 21,50 h -9 c -0.553,0 -1,-0.447 -1,-1 0,-0.553 0.447,-1 1,-1 h 9 c 0.553,0 1,0.447 1,1 0,0.553 -0.447,1 -1,1 z"
     style="fill:#4fba6f"
     inkscape:connector-curvature="0" /><path
     id="path84"
     d="m 27,50 h -2 c -0.553,0 -1,-0.447 -1,-1 0,-0.553 0.447,-1 1,-1 h 2 c 0.553,0 1,0.447 1,1 0,0.553 -0.447,1 -1,1 z"
     style="fill:#8697cb"
     inkscape:connector-curvature="0" /><path
     id="path86"
     d="m 38,50 h -7 c -0.553,0 -1,-0.447 -1,-1 0,-0.553 0.447,-1 1,-1 h 7 c 0.553,0 1,0.447 1,1 0,0.553 -0.447,1 -1,1 z"
     style="fill:#e64c3c"
     inkscape:connector-curvature="0" /><path
     id="path88"
     d="m 43,50 h -1 c -0.553,0 -1,-0.447 -1,-1 0,-0.553 0.447,-1 1,-1 h 1 c 0.553,0 1,0.447 1,1 0,0.553 -0.447,1 -1,1 z"
     style="fill:#f0c419"
     inkscape:connector-curvature="0" /></g>
<g
   id="g90"
   transform="translate(0,14)">
</g>
<g
   id="g92"
   transform="translate(0,14)">
</g>
<g
   id="g94"
   transform="translate(0,14)">
</g>
<g
   id="g96"
   transform="translate(0,14)">
</g>
<g
   id="g98"
   transform="translate(0,14)">
</g>
<g
   id="g100"
   transform="translate(0,14)">
</g>
<g
   id="g102"
   transform="translate(0,14)">
</g>
<g
   id="g104"
   transform="translate(0,14)">
</g>
<g
   id="g106"
   transform="translate(0,14)">
</g>
<g
   id="g108"
   transform="translate(0,14)">
</g>
<g
   id="g110"
   transform="translate(0,14)">
</g>
<g
   id="g112"
   transform="translate(0,14)">
</g>
<g
   id="g114"
   transform="translate(0,14)">
</g>
<g
   id="g116"
   transform="translate(0,14)">
</g>
<g
   id="g118"
   transform="translate(0,14)">
</g>
</svg>