<svg xmlns="http://www.w3.org/2000/svg" xmlns:svg="http://www.w3.org/2000/svg" id="Capa_1" width="78" height="72" x="0" y="0" version="1.1" viewBox="0 0 78 72" xml:space="preserve"><metadata id="metadata125"/><g id="g976" transform="scale(1.3448276,1.2413793)"><rect id="rect2" width="58" height="58" x="0" y="0" fill="#ecf0f1"/><rect id="rect4" width="58" height="12" x="0" y="0" fill="#546a79"/><circle id="circle6" cx="6" cy="6" r="3" fill="#ed7161"/><circle id="circle8" cx="15" cy="6" r="3" fill="#f0c419"/><circle id="circle10" cx="24" cy="6" r="3" fill="#4fba6f"/><rect id="rect12" width="7" height="46" x="0" y="12" fill="#95a5a5"/><g id="g34"><path id="path14" fill="#bdc3c7" d="M 3,18 H 4 C 4.553,18 5,17.553 5,17 5,16.447 4.553,16 4,16 H 3 c -0.553,0 -1,0.447 -1,1 0,0.553 0.447,1 1,1 z"/><path id="path16" fill="#bdc3c7" d="M 4,20 H 3 c -0.553,0 -1,0.447 -1,1 0,0.553 0.447,1 1,1 H 4 C 4.553,22 5,21.553 5,21 5,20.447 4.553,20 4,20 Z"/><path id="path18" fill="#bdc3c7" d="M 4,24 H 3 c -0.553,0 -1,0.447 -1,1 0,0.553 0.447,1 1,1 H 4 C 4.553,26 5,25.553 5,25 5,24.447 4.553,24 4,24 Z"/><path id="path20" fill="#bdc3c7" d="M 4,28 H 3 c -0.553,0 -1,0.447 -1,1 0,0.553 0.447,1 1,1 H 4 C 4.553,30 5,29.553 5,29 5,28.447 4.553,28 4,28 Z"/><path id="path22" fill="#bdc3c7" d="M 4,32 H 3 c -0.553,0 -1,0.447 -1,1 0,0.553 0.447,1 1,1 H 4 C 4.553,34 5,33.553 5,33 5,32.447 4.553,32 4,32 Z"/><path id="path24" fill="#bdc3c7" d="M 4,36 H 3 c -0.553,0 -1,0.447 -1,1 0,0.553 0.447,1 1,1 H 4 C 4.553,38 5,37.553 5,37 5,36.447 4.553,36 4,36 Z"/><path id="path26" fill="#bdc3c7" d="M 4,40 H 3 c -0.553,0 -1,0.447 -1,1 0,0.553 0.447,1 1,1 H 4 C 4.553,42 5,41.553 5,41 5,40.447 4.553,40 4,40 Z"/><path id="path28" fill="#bdc3c7" d="M 4,44 H 3 c -0.553,0 -1,0.447 -1,1 0,0.553 0.447,1 1,1 H 4 C 4.553,46 5,45.553 5,45 5,44.447 4.553,44 4,44 Z"/><path id="path30" fill="#bdc3c7" d="M 4,48 H 3 c -0.553,0 -1,0.447 -1,1 0,0.553 0.447,1 1,1 H 4 C 4.553,50 5,49.553 5,49 5,48.447 4.553,48 4,48 Z"/><path id="path32" fill="#bdc3c7" d="M 4,52 H 3 c -0.553,0 -1,0.447 -1,1 0,0.553 0.447,1 1,1 H 4 C 4.553,54 5,53.553 5,53 5,52.447 4.553,52 4,52 Z"/></g><path id="path36" fill="#8697cb" d="M 25,18 H 12 c -0.553,0 -1,-0.447 -1,-1 0,-0.553 0.447,-1 1,-1 h 13 c 0.553,0 1,0.447 1,1 0,0.553 -0.447,1 -1,1 z"/><path id="path38" fill="#f0c419" d="M 39,18 H 29 c -0.553,0 -1,-0.447 -1,-1 0,-0.553 0.447,-1 1,-1 h 10 c 0.553,0 1,0.447 1,1 0,0.553 -0.447,1 -1,1 z"/><path id="path40" fill="#4fba6f" d="m 45,18 h -2 c -0.553,0 -1,-0.447 -1,-1 0,-0.553 0.447,-1 1,-1 h 2 c 0.553,0 1,0.447 1,1 0,0.553 -0.447,1 -1,1 z"/><path id="path42" fill="#8697cb" d="M 50,22 H 35 c -0.553,0 -1,-0.447 -1,-1 0,-0.553 0.447,-1 1,-1 h 15 c 0.553,0 1,0.447 1,1 0,0.553 -0.447,1 -1,1 z"/><path id="path44" fill="#e64c3c" d="M 31,22 H 17 c -0.553,0 -1,-0.447 -1,-1 0,-0.553 0.447,-1 1,-1 h 14 c 0.553,0 1,0.447 1,1 0,0.553 -0.447,1 -1,1 z"/><path id="path46" fill="#e64c3c" d="m 13,22 h -1 c -0.553,0 -1,-0.447 -1,-1 0,-0.553 0.447,-1 1,-1 h 1 c 0.553,0 1,0.447 1,1 0,0.553 -0.447,1 -1,1 z"/><path id="path48" fill="#8697cb" d="m 21,26 h -9 c -0.553,0 -1,-0.447 -1,-1 0,-0.553 0.447,-1 1,-1 h 9 c 0.553,0 1,0.447 1,1 0,0.553 -0.447,1 -1,1 z"/><path id="path50" fill="#f0c419" d="m 27,26 h -2 c -0.553,0 -1,-0.447 -1,-1 0,-0.553 0.447,-1 1,-1 h 2 c 0.553,0 1,0.447 1,1 0,0.553 -0.447,1 -1,1 z"/><path id="path52" fill="#4fba6f" d="M 45,26 H 31 c -0.553,0 -1,-0.447 -1,-1 0,-0.553 0.447,-1 1,-1 h 14 c 0.553,0 1,0.447 1,1 0,0.553 -0.447,1 -1,1 z"/><path id="path54" fill="#f0c419" d="M 25,30 H 12 c -0.553,0 -1,-0.447 -1,-1 0,-0.553 0.447,-1 1,-1 h 13 c 0.553,0 1,0.447 1,1 0,0.553 -0.447,1 -1,1 z"/><path id="path56" fill="#4fba6f" d="M 39,30 H 29 c -0.553,0 -1,-0.447 -1,-1 0,-0.553 0.447,-1 1,-1 h 10 c 0.553,0 1,0.447 1,1 0,0.553 -0.447,1 -1,1 z"/><path id="path58" fill="#f0c419" d="m 43,34 h -8 c -0.553,0 -1,-0.447 -1,-1 0,-0.553 0.447,-1 1,-1 h 8 c 0.553,0 1,0.447 1,1 0,0.553 -0.447,1 -1,1 z"/><path id="path60" fill="#8697cb" d="M 31,34 H 17 c -0.553,0 -1,-0.447 -1,-1 0,-0.553 0.447,-1 1,-1 h 14 c 0.553,0 1,0.447 1,1 0,0.553 -0.447,1 -1,1 z"/><path id="path62" fill="#4fba6f" d="m 13,34 h -1 c -0.553,0 -1,-0.447 -1,-1 0,-0.553 0.447,-1 1,-1 h 1 c 0.553,0 1,0.447 1,1 0,0.553 -0.447,1 -1,1 z"/><path id="path64" fill="#f0c419" d="m 21,38 h -9 c -0.553,0 -1,-0.447 -1,-1 0,-0.553 0.447,-1 1,-1 h 9 c 0.553,0 1,0.447 1,1 0,0.553 -0.447,1 -1,1 z"/><path id="path66" fill="#8697cb" d="m 27,38 h -2 c -0.553,0 -1,-0.447 -1,-1 0,-0.553 0.447,-1 1,-1 h 2 c 0.553,0 1,0.447 1,1 0,0.553 -0.447,1 -1,1 z"/><path id="path68" fill="#e64c3c" d="M 46,38 H 31 c -0.553,0 -1,-0.447 -1,-1 0,-0.553 0.447,-1 1,-1 h 15 c 0.553,0 1,0.447 1,1 0,0.553 -0.447,1 -1,1 z"/><path id="path70" fill="#8697cb" d="M 25,42 H 12 c -0.553,0 -1,-0.447 -1,-1 0,-0.553 0.447,-1 1,-1 h 13 c 0.553,0 1,0.447 1,1 0,0.553 -0.447,1 -1,1 z"/><path id="path72" fill="#4fba6f" d="M 39,42 H 29 c -0.553,0 -1,-0.447 -1,-1 0,-0.553 0.447,-1 1,-1 h 10 c 0.553,0 1,0.447 1,1 0,0.553 -0.447,1 -1,1 z"/><path id="path74" fill="#e64c3c" d="m 50,42 h -7 c -0.553,0 -1,-0.447 -1,-1 0,-0.553 0.447,-1 1,-1 h 7 c 0.553,0 1,0.447 1,1 0,0.553 -0.447,1 -1,1 z"/><path id="path76" fill="#8697cb" d="m 39,46 h -4 c -0.553,0 -1,-0.447 -1,-1 0,-0.553 0.447,-1 1,-1 h 4 c 0.553,0 1,0.447 1,1 0,0.553 -0.447,1 -1,1 z"/><path id="path78" fill="#e64c3c" d="M 31,46 H 17 c -0.553,0 -1,-0.447 -1,-1 0,-0.553 0.447,-1 1,-1 h 14 c 0.553,0 1,0.447 1,1 0,0.553 -0.447,1 -1,1 z"/><path id="path80" fill="#f0c419" d="m 13,46 h -1 c -0.553,0 -1,-0.447 -1,-1 0,-0.553 0.447,-1 1,-1 h 1 c 0.553,0 1,0.447 1,1 0,0.553 -0.447,1 -1,1 z"/><path id="path82" fill="#4fba6f" d="m 21,50 h -9 c -0.553,0 -1,-0.447 -1,-1 0,-0.553 0.447,-1 1,-1 h 9 c 0.553,0 1,0.447 1,1 0,0.553 -0.447,1 -1,1 z"/><path id="path84" fill="#8697cb" d="m 27,50 h -2 c -0.553,0 -1,-0.447 -1,-1 0,-0.553 0.447,-1 1,-1 h 2 c 0.553,0 1,0.447 1,1 0,0.553 -0.447,1 -1,1 z"/><path id="path86" fill="#e64c3c" d="m 38,50 h -7 c -0.553,0 -1,-0.447 -1,-1 0,-0.553 0.447,-1 1,-1 h 7 c 0.553,0 1,0.447 1,1 0,0.553 -0.447,1 -1,1 z"/><path id="path88" fill="#f0c419" d="m 43,50 h -1 c -0.553,0 -1,-0.447 -1,-1 0,-0.553 0.447,-1 1,-1 h 1 c 0.553,0 1,0.447 1,1 0,0.553 -0.447,1 -1,1 z"/></g></svg>