<?xml version="1.0" encoding="UTF-8" standalone="no"?>
<svg
   xmlns:dc="http://purl.org/dc/elements/1.1/"
   xmlns:cc="http://creativecommons.org/ns#"
   xmlns:rdf="http://www.w3.org/1999/02/22-rdf-syntax-ns#"
   xmlns:svg="http://www.w3.org/2000/svg"
   xmlns="http://www.w3.org/2000/svg"
   xmlns:sodipodi="http://sodipodi.sourceforge.net/DTD/sodipodi-0.dtd"
   xmlns:inkscape="http://www.inkscape.org/namespaces/inkscape"
   height="70pt"
   viewBox="-25 0 65 70.140285"
   width="65pt"
   version="1.1"
   id="svg66"
   sodipodi:docname="empire.svg"
   inkscape:version="0.92.4 (5da689c313, 2019-01-14)">
  <metadata
     id="metadata72">
    <rdf:RDF>
      <cc:Work
         rdf:about="">
        <dc:format>image/svg+xml</dc:format>
        <dc:type
           rdf:resource="http://purl.org/dc/dcmitype/StillImage" />
        <dc:title></dc:title>
      </cc:Work>
    </rdf:RDF>
  </metadata>
  <defs
     id="defs70" />
  <sodipodi:namedview
     pagecolor="#ffffff"
     bordercolor="#666666"
     borderopacity="1"
     objecttolerance="10"
     gridtolerance="10"
     guidetolerance="10"
     inkscape:pageopacity="0"
     inkscape:pageshadow="2"
     inkscape:window-width="753"
     inkscape:window-height="480"
     id="namedview68"
     showgrid="false"
     inkscape:zoom="0.3604888"
     inkscape:cx="278.78814"
     inkscape:cy="327.33333"
     inkscape:window-x="0"
     inkscape:window-y="0"
     inkscape:window-maximized="0"
     inkscape:current-layer="svg66" />
  <g
     id="g911"
     transform="matrix(0.14601876,0,0,0.13085581,-22.124772,4.258659)">
    <path
       id="path2"
       d="m 424.49219,323.98438 h -32 c 8.83984,0 16,-7.16797 16,-16 0,-8.83204 -7.16016,-16 -16,-16 h -32 c 8.83984,0 16,-7.16797 16,-16 0,-8.83204 -7.16016,-16 -16,-16 h -48 c 8.83984,0 16,-7.16797 16,-16 0,-8.83204 -7.16016,-16 -16,-16 h 88 c 8.83984,0 16,-7.16797 16,-16 0,-8.83204 -7.16016,-16 -16,-16 h -40 c 8.83984,0 16,-7.16797 16,-16 0,-8.83204 -7.16016,-16 -16,-16 h -16 c 8.83984,0 16,-7.16797 16,-16 0,-8.83204 -7.16016,-16 -16,-16 h 80 c 8.83984,0 16,-7.16797 16,-16.00001 0,-8.83203 -7.16016,-15.999995 -16,-15.999995 h -32 c 8.83984,0 16,-7.167969 16,-16 0,-8.832031 -7.16016,-16 -16,-16 h -32 c 8.83984,0 16,-7.167969 16,-16 0,-8.832031 -7.16016,-16 -16,-16 h -24 c 8.83984,0 16,-7.167969 16,-16 0,-8.832031 -7.16016,-16 -16,-16 h -192 c -8.83203,0 -16,7.167969 -16,16 0,8.832031 7.16797,16 16,16 H 88.492188 c -8.832032,0 -16,7.167969 -16,16 0,8.832031 7.167968,16 16,16 h -16 c -8.832032,0 -16,7.167969 -16,16 0,8.832031 7.167968,16 16,16 h 48.000002 c -8.83203,0 -16,7.167965 -16,15.999995 0,8.83204 7.16797,16.00001 16,16.00001 H 32.492188 c -8.832032,0 -16,7.16796 -16,16 0,8.83203 7.167968,16 16,16 h 40 c -8.832032,0 -16,7.16796 -16,16 0,8.83203 7.167968,16 16,16 h -40 c -8.832032,0 -16,7.16796 -16,16 0,8.83203 7.167968,16 16,16 h -16 c -8.832032,0 -16,7.16796 -16,16 0,8.83203 7.167968,16 16,16 h 40 c -8.832032,0 -16,7.16796 -16,16 0,8.83203 7.167968,16 16,16 h -16 c -8.832032,0 -16,7.16796 -16,16 0,8.83203 7.167968,16 16,16 h 80.000002 c -8.83203,0 -16,7.16796 -16,16 0,8.83203 7.16797,16 16,16 H 88.492188 c -8.832032,0 -16,7.16796 -16,16 0,8.83203 7.167968,16 16,16 H 312.49219 c 8.83984,0 16,-7.16797 16,-16 0,-8.83204 -7.16016,-16 -16,-16 h 112 c 8.83984,0 16,-7.16797 16,-16 0,-8.83204 -7.16016,-16 -16,-16 z m 0,0"
       inkscape:connector-curvature="0"
       style="fill:#4fc1e9" />
    <path
       id="path4"
       d="m 220.49219,72.015625 c -2.20703,0 -4,-1.792969 -4,-4 V 4 c 0,-2.207031 1.79297,-4 4,-4 2.20703,0 4,1.792969 4,4 v 64.015625 c 0,2.207031 -1.79297,4 -4,4 z m 0,0"
       inkscape:connector-curvature="0"
       style="fill:#434a54" />
    <path
       id="path6"
       d="m 232.5,60.007812 4,80.070318 C 233.94922,140 223.30078,140 220.49219,140 c -2.80078,0 -13.44922,0 -16.00781,0.0781 l 4,-80.070318 z m 0,0"
       inkscape:connector-curvature="0"
       style="fill:#656d78" />
    <path
       id="path8"
       d="m 228.49219,124.0625 c -2.55078,-0.0781 -5.19141,-0.0781 -8,-0.0781 -2.80078,0 -5.44141,0 -8,0.0781 -34.16016,0.96094 -48,7.92188 -48,7.92188 v 56 h 112 v -56 c 0,0 -13.83203,-6.96094 -48,-7.92188 z m 0,0"
       inkscape:connector-curvature="0"
       style="fill:#ccd1d9" />
    <path
       id="path10"
       d="m 268.5,187.98438 h -96.01562 l 8.00781,72 8,232 h 64 l 8,-232 z m 0,0"
       inkscape:connector-curvature="0"
       style="fill:#ccd1d9" />
    <g
       id="g30"
       style="fill:#e6e9ed">
      <path
         id="path12"
         d="m 204.49219,200 c -2.20703,0 -4,-1.79297 -4,-4 v -32.01562 c 0,-2.20704 1.79297,-4 4,-4 2.20703,0 4,1.79296 4,4 V 196 c 0,2.20703 -1.79297,4 -4,4 z m 0,0"
         inkscape:connector-curvature="0" />
      <path
         id="path14"
         d="m 188.5,200 c -2.20703,0 -4,-1.79297 -4,-4 v -32.01562 c 0,-2.20704 1.79297,-4 4,-4 2.20703,0 4,1.79296 4,4 V 196 c 0,2.20703 -1.79297,4 -4,4 z m 0,0"
         inkscape:connector-curvature="0" />
      <path
         id="path16"
         d="m 236.49219,200 c -2.20703,0 -4,-1.79297 -4,-4 v -32.01562 c 0,-2.20704 1.79297,-4 4,-4 2.20703,0 4,1.79296 4,4 V 196 c 0,2.20703 -1.79297,4 -4,4 z m 0,0"
         inkscape:connector-curvature="0" />
      <path
         id="path18"
         d="m 252.48438,200 c -2.20704,0 -4,-1.79297 -4,-4 v -32.01562 c 0,-2.20704 1.79296,-4 4,-4 2.20703,0 4,1.79296 4,4 V 196 c 0,2.20703 -1.79297,4 -4,4 z m 0,0"
         inkscape:connector-curvature="0" />
      <path
         id="path20"
         d="m 220.49219,200 c -2.20703,0 -4,-1.79297 -4,-4 v -32.01562 c 0,-2.20704 1.79297,-4 4,-4 2.20703,0 4,1.79296 4,4 V 196 c 0,2.20703 -1.79297,4 -4,4 z m 0,0"
         inkscape:connector-curvature="0" />
      <path
         id="path22"
         d="m 92.484375,19.992188 c 13.281245,0 23.999995,10.71875 23.999995,24 0,13.28125 -10.71875,24 -23.999995,24 h -64 c -4.390625,0 -8,-3.601563 -8,-8 0,-4.398438 3.609375,-8 8,-8 h 16 c -4.390625,0 -8,-3.601563 -8,-8 0,-4.398438 3.609375,-8 8,-8 h 25.519531 c 3.289063,-9.28125 12.089844,-16 22.480469,-16 z m 0,0"
         inkscape:connector-curvature="0" />
      <path
         id="path24"
         d="m 192.5,268 c 0,4.39844 -3.60156,8 -8,8 h -24.00781 c -4.39844,0 -8,-3.60156 -8,-8 v -72.01562 c 0,-4.39844 3.60156,-8 8,-8 H 184.5 c 4.39844,0 8,3.60156 8,8 z m 0,0"
         inkscape:connector-curvature="0" />
      <path
         id="path26"
         d="m 288.5,268 c 0,4.39844 -3.60156,8 -8,8 h -24.00781 c -4.39844,0 -8,-3.60156 -8,-8 v -72.01562 c 0,-4.39844 3.60156,-8 8,-8 H 280.5 c 4.39844,0 8,3.60156 8,8 z m 0,0"
         inkscape:connector-curvature="0" />
      <path
         id="path28"
         d="m 412.49219,51.984375 c 13.28125,0 24,10.71875 24,24 0,13.28125 -10.71875,24 -24,24 h -72 c -4.39063,0 -8,-3.601563 -8,-8 0,-4.398437 3.60937,-8 8,-8 h 16 c -4.39063,0 -8,-3.601563 -8,-8 0,-4.398437 3.60937,-8 8,-8 h 33.51953 c 3.28906,-9.28125 12.08984,-16 22.48047,-16 z m 0,0"
         inkscape:connector-curvature="0" />
    </g>
    <path
       id="path32"
       d="m 224.49219,124.02344 c 1.33594,0.008 2.72656,0 4,0.0391 v -0.0781 c -1.39844,0 -2.67188,0.0312 -4,0.0391 z m 0,0"
       inkscape:connector-curvature="0"
       style="fill:#ffffff" />
    <path
       id="path34"
       d="m 172.49219,251.98438 c -2.20703,0 -4,-1.79297 -4,-4 v -44 c 0,-2.20704 1.79297,-4 4,-4 2.20703,0 4,1.79296 4,4 v 44 c 0,2.20703 -1.79297,4 -4,4 z m 0,0"
       inkscape:connector-curvature="0"
       style="fill:#ccd1d9" />
    <path
       id="path36"
       d="m 268.5,251.98438 c -2.20703,0 -4,-1.79297 -4,-4 v -44 c 0,-2.20704 1.79297,-4 4,-4 2.20703,0 4,1.79296 4,4 v 44 c 0,2.20703 -1.79297,4 -4,4 z m 0,0"
       inkscape:connector-curvature="0"
       style="fill:#ccd1d9" />
    <path
       id="path38"
       d="M 252.48438,151.98438 H 188.5 c -2.20703,0 -4,-1.79297 -4,-4 0,-2.20704 1.79297,-4 4,-4 h 63.98438 c 2.20703,0 4,1.79296 4,4 0,2.20703 -1.79297,4 -4,4 z m 0,0"
       inkscape:connector-curvature="0"
       style="fill:#e6e9ed" />
    <path
       id="path40"
       d="m 196.49219,151.98438 c -2.20703,0 -4,-1.79297 -4,-4 v -8 c 0,-2.20704 1.79297,-4 4,-4 2.20703,0 4,1.79296 4,4 v 8 c 0,2.20703 -1.79297,4 -4,4 z m 0,0"
       inkscape:connector-curvature="0"
       style="fill:#e6e9ed" />
    <path
       id="path42"
       d="m 212.49219,151.98438 c -2.20703,0 -4,-1.79297 -4,-4 v -8 c 0,-2.20704 1.79297,-4 4,-4 2.20703,0 4,1.79296 4,4 v 8 c 0,2.20703 -1.79297,4 -4,4 z m 0,0"
       inkscape:connector-curvature="0"
       style="fill:#e6e9ed" />
    <path
       id="path44"
       d="m 228.49219,151.98438 c -2.20703,0 -4,-1.79297 -4,-4 v -8 c 0,-2.20704 1.79297,-4 4,-4 2.20703,0 4,1.79296 4,4 v 8 c 0,2.20703 -1.79297,4 -4,4 z m 0,0"
       inkscape:connector-curvature="0"
       style="fill:#e6e9ed" />
    <path
       id="path46"
       d="m 244.49219,151.98438 c -2.20703,0 -4,-1.79297 -4,-4 v -8 c 0,-2.20704 1.79297,-4 4,-4 2.20703,0 4,1.79296 4,4 v 8 c 0,2.20703 -1.79297,4 -4,4 z m 0,0"
       inkscape:connector-curvature="0"
       style="fill:#e6e9ed" />
    <path
       id="path48"
       d="m 184.49219,259.98438 h -32 c -4.39844,0 -8,3.60156 -8,8 v 224 h 48 v -224 c 0,-4.39844 -3.60156,-8 -8,-8 z m 0,0"
       inkscape:connector-curvature="0"
       style="fill:#f5f7fa" />
    <path
       id="path50"
       d="m 180.49219,275.98438 c 0,-2.20704 -1.79297,-4 -4,-4 -2.20703,0 -4,1.79296 -4,4 v 216 h 8 z m 0,0"
       inkscape:connector-curvature="0"
       style="fill:#e6e9ed" />
    <path
       id="path52"
       d="m 164.49219,275.98438 c 0,-2.20704 -1.79297,-4 -4,-4 -2.20703,0 -4,1.79296 -4,4 v 216 h 8 z m 0,0"
       inkscape:connector-curvature="0"
       style="fill:#e6e9ed" />
    <path
       id="path54"
       d="m 288.5,259.98438 h -32 c -4.39844,0 -8,3.60156 -8,8 v 224 h 48 v -224 c 0,-4.39844 -3.60156,-8 -8,-8 z m 0,0"
       inkscape:connector-curvature="0"
       style="fill:#f5f7fa" />
    <path
       id="path56"
       d="m 284.5,275.98438 c 0,-2.20704 -1.79297,-4 -4,-4 -2.20703,0 -4,1.79296 -4,4 v 216 h 8 z m 0,0"
       inkscape:connector-curvature="0"
       style="fill:#e6e9ed" />
    <path
       id="path58"
       d="m 268.5,275.98438 c 0,-2.20704 -1.79297,-4 -4,-4 -2.20703,0 -4,1.79296 -4,4 v 216 h 8 z m 0,0"
       inkscape:connector-curvature="0"
       style="fill:#e6e9ed" />
    <path
       id="path60"
       d="m 200.46875,187.98438 h 8 v 304 h -8 z m 0,0"
       inkscape:connector-curvature="0"
       style="fill:#e6e9ed" />
    <path
       id="path62"
       d="m 216.49219,187.98438 h 8 v 304 h -8 z m 0,0"
       inkscape:connector-curvature="0"
       style="fill:#e6e9ed" />
    <path
       id="path64"
       d="m 232.51563,187.98438 h 8 v 304 h -8 z m 0,0"
       inkscape:connector-curvature="0"
       style="fill:#e6e9ed" />
  </g>
</svg>
