<svg xmlns="http://www.w3.org/2000/svg" xmlns:svg="http://www.w3.org/2000/svg" id="Capa_1" width="90.335" height="85.998" x="0" y="0" version="1.1" viewBox="0 0 90.335 85.998" xml:space="preserve"><metadata id="metadata47"/><g id="g859" transform="matrix(0.1801889,0,0,0.15819997,-0.10338,3.9816228)"><path id="path2" fill="#ec5569" d="M 412.41,0 H 99.589 C 47.531,0 5.332,42.201 5.332,94.257 v 205.172 c 0,52.057 42.201,94.257 94.257,94.257 h 44.894 c 2.136,0 3.867,1.731 3.867,3.867 V 498.76 c 0,11.966 14.637,17.768 22.834,9.05 L 277.372,394.904 c 0.731,-0.778 1.751,-1.218 2.818,-1.218 h 132.22 c 52.057,0 94.257,-42.201 94.257,-94.257 V 94.257 C 506.667,42.201 464.466,0 412.41,0 Z"/><path id="path4" fill="#e63950" d="m 188.005,358.509 c 0,-2.249 -1.676,-4.072 -3.744,-4.072 h -43.462 c -50.396,0 -91.25,-44.439 -91.25,-99.257 V 39.123 c 0,-9.276 1.174,-18.253 3.361,-26.77 C 24.489,28.587 5.332,59.184 5.332,94.257 v 205.172 c 0,52.056 42.201,94.257 94.257,94.257 h 44.894 c 2.136,0 3.867,1.732 3.867,3.867 V 498.76 c 0,11.966 14.637,17.768 22.834,9.05 l 16.82,-17.885 V 358.509 Z"/><path id="path6" fill="#ec5569" d="m 361.908,122.325 v 0 c -23.931,-23.931 -62.731,-23.931 -86.663,0 l -13.518,13.518 c -3.223,3.223 -8.45,3.223 -11.673,0 l -13.302,-13.302 c -23.931,-23.931 -62.731,-23.931 -86.663,0 v 0 c -23.931,23.931 -23.931,62.731 0,86.663 l 99.973,99.973 c 3.223,3.223 8.45,3.223 11.673,0 L 361.907,208.988 c 23.932,-23.932 23.932,-62.731 0.001,-86.663 z"/><path id="path8" fill="#fff5f5" d="m 361.908,122.325 v 0 c -23.931,-23.931 -62.731,-23.931 -86.663,0 l -13.518,13.518 c -3.223,3.223 -8.45,3.223 -11.673,0 l -13.302,-13.302 c -23.931,-23.931 -62.731,-23.931 -86.663,0 v 0 c -23.931,23.931 -23.931,62.731 0,86.663 l 99.973,99.973 c 3.223,3.223 8.45,3.223 11.673,0 L 361.907,208.988 c 23.932,-23.932 23.932,-62.731 0.001,-86.663 z"/><path id="path10" fill="#dce6eb" d="m 182.145,209.204 c -23.931,-23.931 -23.931,-62.731 0,-86.663 v 0 c 7.85,-7.85 17.304,-13.108 27.303,-15.807 -20.486,-5.532 -43.278,-0.274 -59.358,15.807 v 0 c -23.931,23.931 -23.931,62.731 0,86.663 l 99.973,99.973 c 3.223,3.223 8.45,3.223 11.673,0 l 10.19,-10.192 z"/></g></svg>